<svg id="Layer_1" data-name="Layer 1" xmlns="http://www.w3.org/2000/svg" viewBox="0 0 500 327.11"><defs><style>.cls-1{fill:#3448c5;}</style></defs><path class="cls-1" d="M677,652.11a15.15,15.15,0,0,1-4.71-29.54c28.81-9.43,47.42-34.68,47.42-64.33a67.57,67.57,0,0,0-76.93-67.45L628,492.71l-2.13-14.78c-9.1-63.4-64.32-111.2-128.45-111.2a129.34,129.34,0,0,0-120.23,80.86l-3.77,9.24-10,.19c-45.83.84-83.13,38.8-83.13,84.62a85.47,85.47,0,0,0,49.47,77.7,15.14,15.14,0,0,1-12.6,27.54C276.36,628.2,250,586.9,250,541.64c0-58.9,45.38-108.24,103-114.3a159.46,159.46,0,0,1,144.37-90.89c74.4,0,139.07,52.16,155.84,123.42A98.51,98.51,0,0,1,750,558.25c0,42.32-27.44,79.74-68.29,93.1A15.16,15.16,0,0,1,677,652.11Z" transform="translate(-250 -336.45)"/><path class="cls-1" d="M445.34,658.66h0s0,0,0,0h-.16a2.38,2.38,0,0,0-.75-.15h-.1a12,12,0,0,1-12-11.86V513.48h10.2a2.47,2.47,0,0,0,2.62-2.56,2.56,2.56,0,0,0-1.59-2.37l-48.93-33.77a2.56,2.56,0,0,0-2.92,0l-49.31,34a2.57,2.57,0,0,0,1.46,4.68h10.19V646.58a17.11,17.11,0,0,0,16.85,16.95,1.62,1.62,0,0,0,.31,0h73.1a2.56,2.56,0,0,0,1.73-.71h0l0,0a0,0,0,0,1,0,0h.05a2.59,2.59,0,0,0,.72-1.76h0A2.57,2.57,0,0,0,445.34,658.66Z" transform="translate(-250 -336.45)"/><path class="cls-1" d="M551,658.66h0s0,0,0,0h-.16a3,3,0,0,0-.75-.15H550A12,12,0,0,1,538,646.54V543.28h10.3a2.56,2.56,0,0,0,1-4.93l-48.93-33.77a2.54,2.54,0,0,0-2.91,0l-49.3,34a2.56,2.56,0,0,0,1.46,4.67h10.15v103.3a17.11,17.11,0,0,0,16.85,16.95,1.62,1.62,0,0,0,.31,0H550a2.56,2.56,0,0,0,1.73-.71h0s0,0,0,0h.06a2.55,2.55,0,0,0,.72-1.77h0A2.57,2.57,0,0,0,551,658.66Z" transform="translate(-250 -336.45)"/><path class="cls-1" d="M657,658.66h-.21a3,3,0,0,0-.75-.15h-.1A12,12,0,0,1,644,646.54V573.07h10.22a2.57,2.57,0,0,0,1-4.94L606.3,534.36a2.59,2.59,0,0,0-2.92,0l-49.31,34a2.56,2.56,0,0,0,1.46,4.67H565.7v73.51a17.14,17.14,0,0,0,16.86,16.95,1.56,1.56,0,0,0,.31,0H656a2.56,2.56,0,0,0,1.73-.71h0a0,0,0,0,0,0,0h.06a2.55,2.55,0,0,0,.72-1.77h0A2.56,2.56,0,0,0,657,658.66Z" transform="translate(-250 -336.45)"/></svg>