<?xml version="1.0" encoding="UTF-8"?>
<svg version="1.1" viewBox="0 0 117 82" xmlns="http://www.w3.org/2000/svg" xmlns:xlink="http://www.w3.org/1999/xlink">
    <title>mpt-illus-welcome</title>
    <desc>Created with Sketch.</desc>
    <defs>
        <linearGradient id="a" x1="-.0090559%" x2="99.973%" y1="49.999%" y2="49.999%">
            <stop stop-color="#D0DAE2" offset="0"/>
            <stop stop-color="#90A0B3" offset="1"/>
        </linearGradient>
        <path id="d" d="m35.24 4.5c-1.1595 0.29881-2.1526 1.0465-2.7604 2.0782s-0.78031 2.2628-0.47958 3.4218l8.7 35.18c0.28395 1.1637 1.0191 2.1666 2.0434 2.7875 1.0243 0.62095 2.2535 0.80893 3.4166 0.52248l26.4-6.55c2.4262-0.6007 3.9074-3.053 3.31-5.48l-6.54-26.38-16.46-9.92-17.63 4.34zm19.21 11.57l-3-12.09 15.08 9.09-12.08 3z"/>
        <path id="c" d="m46 68.92v-35.56c0.0026616-1.3481-0.5317-2.6418-1.485-3.595-0.95326-0.95326-2.2469-1.4876-3.595-1.485h-35.56c-1.3481-0.0026616-2.6418 0.5317-3.595 1.485-0.95326 0.95326-1.4876 2.2469-1.485 3.595v35.56c-0.0026616 1.3481 0.5317 2.6418 1.485 3.595 0.95326 0.95326 2.2469 1.4876 3.595 1.485h35.56c1.3481 0.0026616 2.6418-0.5317 3.595-1.485 0.95326-0.95326 1.4876-2.2469 1.485-3.595zm-31.75-14l6.35 7.63 8.89-11.44 11.43 15.24h-35.56l8.89-11.43z"/>
        <path id="b" d="m102.38 32.8l1.92 10.43-6.83-2-1.92-10.43-4.55-1.3 1.92 10.43-6.83-2-1.92-10.42-4.55-1.32 1.91 10.43-6.83-2-1.91-10.43-2.28-0.66c-1.2055-0.34851-2.5001-0.20268-3.5978 0.40528s-1.9081 1.628-2.2522 2.8347l-7.94 27.32c-0.35986 1.2188-0.2152 2.5312 0.4015 3.6424 0.61671 1.1112 1.6538 1.9282 2.8785 2.2676l36.43 10.55c1.2094 0.35209 2.5092 0.20831 3.6125-0.39959 1.1032-0.6079 1.9191-1.6299 2.2675-2.8404l9.23-31.88-9.16-2.63z"/>
    </defs>
    <g transform="translate(-291 -183)" fill="none" fill-rule="evenodd">
        <g transform="translate(191.5 183.23)" fill-rule="nonzero">
            <g transform="translate(100)">
                <path d="m39.856 11.462c-1.1595 0.29881-2.1526 1.0465-2.7604 2.0782s-0.78031 2.2628-0.47958 3.4218l8.7 35.18c0.28395 1.1637 1.0191 2.1666 2.0434 2.7875 1.0243 0.62095 2.2535 0.80893 3.4166 0.52248l26.4-6.55c2.4262-0.6007 3.9074-3.053 3.31-5.48l-6.54-26.38-16.46-9.92-17.63 4.34zm19.21 11.57l-3-12.09 15.08 9.09-12.08 3z" fill="#D0DAE2"/>
                <path d="m50.616 75.882v-35.56c0.0026616-1.3481-0.5317-2.6418-1.485-3.595-0.95326-0.95326-2.2469-1.4876-3.595-1.485h-35.56c-1.3481-0.0026616-2.6418 0.5317-3.595 1.485-0.95326 0.95326-1.4876 2.2469-1.485 3.595v35.56c-0.0026616 1.3481 0.5317 2.6418 1.485 3.595s2.2469 1.4876 3.595 1.485h35.56c1.3481 0.0026617 2.6418-0.5317 3.595-1.485 0.95326-0.95326 1.4876-2.2469 1.485-3.595zm-31.75-14l6.35 7.63 8.89-11.44 11.43 15.24h-35.56l8.89-11.43z" fill="#D0DAE2"/>
                <path d="m107 39.762l1.92 10.43-6.83-2-1.92-10.43-4.55-1.3 1.92 10.43-6.83-2-1.92-10.42-4.55-1.32 1.91 10.43-6.83-2-1.91-10.43-2.28-0.66c-1.2055-0.34851-2.5001-0.20268-3.5978 0.40528-1.0977 0.60796-1.9081 1.628-2.2522 2.8347l-7.94 27.32c-0.35986 1.2188-0.2152 2.5312 0.4015 3.6424 0.61671 1.1112 1.6538 1.9282 2.8785 2.2676l36.43 10.55c1.2094 0.35209 2.5092 0.20831 3.6125-0.39959 1.1032-0.6079 1.9191-1.6299 2.2675-2.8404l9.23-31.88-9.16-2.63z" fill="#D0DAE2"/>
                <g fill-rule="evenodd">
                    <use fill="#20B832" xlink:href="#d"/>
                    <use fill="url(#a)" style="mix-blend-mode:overlay" xlink:href="#d"/>
                </g>
                <g fill-rule="evenodd">
                    <use fill="#0E2F5A" xlink:href="#c"/>
                    <use fill="url(#a)" style="mix-blend-mode:overlay" xlink:href="#c"/>
                </g>
                <g fill-rule="evenodd">
                    <use fill="#FF620C" xlink:href="#b"/>
                    <use fill="url(#a)" style="mix-blend-mode:overlay" xlink:href="#b"/>
                </g>
            </g>
        </g>
    </g>
</svg>
