<svg width="756" height="756" viewBox="0 0 756 756" fill="none" xmlns="http://www.w3.org/2000/svg">
<path d="M576.465 147.738C535.112 119.13 484.702 107.775 429.801 130.334C375.49 152.621 346.823 207.144 299.648 238.896C249.465 272.704 184.812 275.184 130.622 301.145C92.3228 319.455 66.0443 354.065 59.7695 396.235C47.492 478.654 91.3703 563.084 167.651 597.694C215.233 619.27 270.678 619.134 318.73 599.1C355.623 583.708 387.737 558.518 424.494 542.46C488.376 514.609 562.464 517.331 623.398 481.512C687.96 443.606 696.397 374.16 681.761 309.537C668.47 250.856 630.081 184.812 576.465 147.738Z" fill="#2019a5"/>
<path opacity="0.8" d="M576.465 147.738C535.112 119.13 484.702 107.775 429.801 130.334C375.49 152.621 346.823 207.144 299.648 238.896C249.465 272.704 184.812 275.184 130.622 301.145C92.3228 319.455 66.0443 354.065 59.7695 396.235C47.492 478.654 91.3703 563.084 167.651 597.694C215.233 619.27 270.678 619.134 318.73 599.1C355.623 583.708 387.737 558.518 424.494 542.46C488.376 514.609 562.464 517.331 623.398 481.512C687.96 443.606 696.397 374.16 681.761 309.537C668.47 250.856 630.081 184.812 576.465 147.738Z" fill="white"/>
<path d="M134.568 448.822H208.656C208.656 448.822 230.247 451.649 221.327 472.757H240.983C244.072 468.471 246.071 463.497 246.806 458.265C247.541 453.032 246.99 447.7 245.201 442.729C239.153 425.371 218.922 422.09 218.922 422.09H140.616C140.616 422.09 121.353 430.058 134.568 448.822Z" fill="#263238" stroke="#263238" stroke-width="1.1326" stroke-linecap="round" stroke-linejoin="round"/>
<path d="M303.216 552.5C295.399 528.308 284.014 509.846 286.856 482.842C288.066 471.427 292.904 460.328 293.343 448.883C294.386 417.554 255.346 417.856 245.639 391.154C237.112 367.703 236.401 357.754 219.346 357.044C202.29 356.333 144.713 349.937 131.211 353.49C117.709 357.044 107.745 389.779 96.4351 403.946C85.1253 418.113 71.5627 438.072 80.801 464.426C90.0393 490.78 102.816 525.481 104.192 555.343C105.568 585.205 105.613 613.615 105.613 613.615H309.612C309.612 613.615 311.033 576.662 303.216 552.5ZM214.371 469.34H160.347C155.35 469.2 150.604 467.116 147.119 463.531C143.634 459.947 141.684 455.145 141.684 450.145C141.684 445.146 143.634 440.343 147.119 436.759C150.604 433.174 155.35 431.091 160.347 430.95H214.371C219.369 431.091 224.114 433.174 227.6 436.759C231.085 440.343 233.035 445.146 233.035 450.145C233.035 455.145 231.085 459.947 227.6 463.531C224.114 467.116 219.369 469.2 214.371 469.34Z" fill="#2019a5" stroke="#263238" stroke-width="1.1326" stroke-linecap="round" stroke-linejoin="round"/>
<path d="M104.101 391.699C117.255 398.563 136.488 412.005 147.949 435.547C151.404 432.578 155.807 430.943 160.363 430.935H214.386C217.033 430.939 219.65 431.494 222.071 432.564C224.491 433.633 226.663 435.195 228.448 437.149L228.856 437.422C234.904 427.064 243.598 413.804 253.456 403.371C250.016 399.894 247.357 395.725 245.655 391.139C237.127 367.688 236.416 357.739 219.361 357.029C202.305 356.318 144.729 349.922 131.226 353.475C120.824 356.212 112.538 376.17 104.101 391.699Z" fill="#263238" stroke="#263238" stroke-width="1.1326" stroke-linecap="round" stroke-linejoin="round"/>
<path d="M141.417 614.326H290.621C289.548 600.823 286.932 568.966 284.725 550.368C281.882 526.176 280.461 510.557 273.354 503.496C266.248 496.435 221.478 462.944 208.656 461.523C208.656 461.523 171.687 458.68 160.272 460.812C148.856 462.944 125.496 499.897 125.496 506.293C125.496 512.356 142.128 574.56 141.417 614.326Z" fill="#263238" stroke="#263238" stroke-width="1.1326" stroke-linecap="round" stroke-linejoin="round"/>
<path d="M112.009 548.947C109.877 519.085 87.1365 450.153 82.162 438.782C80.8729 435.174 80.6887 431.262 81.6328 427.548C76.6803 439.264 76.3614 452.423 80.7407 464.365C89.979 490.659 102.771 525.48 104.192 555.342C105.613 585.204 105.613 613.615 105.613 613.615H111.525C112.145 598.752 113.778 573.638 112.009 548.947Z" fill="#263238" stroke="#263238" stroke-width="1.1326" stroke-linecap="round" stroke-linejoin="round"/>
<path d="M236.401 504.872C227.874 491.37 200.113 497.765 178.114 497.055C156.114 496.344 153.922 502.74 153.922 514.821C153.922 525.087 164.702 593.339 167.938 613.615H258.552C258.552 573.925 244.536 517.754 236.401 504.872Z" fill="#2019a5" stroke="#263238" stroke-width="1.1326" stroke-linecap="round" stroke-linejoin="round"/>
<path d="M207.461 496.193C198.238 496.374 188.168 497.297 179.021 497.085C182.907 509.665 198.102 561.859 199.418 613.615H227.964C226.498 589.997 221.78 538.121 207.461 496.193Z" fill="white" stroke="#263238" stroke-width="1.1326" stroke-linecap="round" stroke-linejoin="round"/>
<path d="M401.38 127.746L239.035 116.251L224.075 327.538L386.42 339.033L401.38 127.746Z" fill="#2019a5"/>
<path opacity="0.5" d="M239.036 116.264L224.076 327.551L386.422 339.045L401.382 127.758L239.036 116.264Z" fill="white"/>
<path d="M358.147 280.053L260.729 272.16C260.038 272.105 259.365 271.914 258.748 271.598C258.13 271.282 257.581 270.848 257.132 270.32C256.683 269.792 256.342 269.181 256.129 268.521C255.916 267.861 255.835 267.166 255.891 266.475L263.088 176.027C263.2 174.634 263.86 173.343 264.923 172.436C265.986 171.529 267.365 171.08 268.758 171.189L366.176 179.036C367.569 179.148 368.861 179.808 369.768 180.871C370.675 181.934 371.123 183.313 371.015 184.706L363.833 275.184C363.781 275.878 363.593 276.554 363.279 277.175C362.965 277.796 362.531 278.348 362.003 278.801C361.474 279.253 360.862 279.597 360.2 279.812C359.538 280.027 358.841 280.108 358.147 280.053Z" fill="white"/>
<path opacity="0.08" d="M316.96 233.967C316.846 232.978 317.053 231.978 317.55 231.115C318.047 230.253 318.809 229.573 319.722 229.176C320.635 228.779 321.652 228.686 322.622 228.912C323.592 229.137 324.463 229.668 325.108 230.427C325.753 231.186 326.137 232.132 326.203 233.125C326.269 234.119 326.014 235.107 325.475 235.945C324.937 236.782 324.143 237.424 323.211 237.776C322.28 238.128 321.26 238.17 320.302 237.898C319.42 237.645 318.632 237.137 318.037 236.438C317.443 235.738 317.068 234.879 316.96 233.967Z" fill="black"/>
<path opacity="0.08" d="M300.192 232.636C300.075 231.646 300.28 230.645 300.777 229.781C301.273 228.916 302.034 228.234 302.948 227.836C303.862 227.438 304.88 227.345 305.851 227.57C306.822 227.795 307.695 228.327 308.34 229.086C308.985 229.846 309.369 230.794 309.434 231.788C309.499 232.783 309.242 233.772 308.702 234.61C308.161 235.447 307.365 236.088 306.432 236.438C305.498 236.788 304.477 236.828 303.519 236.552C302.639 236.302 301.854 235.796 301.262 235.099C300.67 234.402 300.298 233.545 300.192 232.636Z" fill="black"/>
<path opacity="0.08" d="M268.486 247.242C268.263 245.357 268.652 243.45 269.597 241.803C270.541 240.156 271.99 238.857 273.73 238.097C275.469 237.338 277.407 237.158 279.257 237.584C281.107 238.011 282.771 239.021 284.002 240.466C285.233 241.911 285.967 243.714 286.095 245.608C286.223 247.502 285.738 249.387 284.712 250.984C283.686 252.581 282.173 253.806 280.398 254.477C278.622 255.148 276.677 255.231 274.851 254.712C273.172 254.232 271.672 253.268 270.54 251.939C269.407 250.61 268.693 248.976 268.486 247.242Z" fill="black"/>
<path opacity="0.08" d="M336.601 252.852C336.381 250.97 336.772 249.068 337.715 247.426C338.659 245.783 340.106 244.488 341.842 243.731C343.579 242.974 345.512 242.795 347.358 243.221C349.204 243.647 350.864 244.656 352.092 246.097C353.321 247.539 354.053 249.338 354.181 251.227C354.31 253.117 353.827 254.998 352.804 256.593C351.781 258.187 350.272 259.41 348.501 260.082C346.73 260.753 344.79 260.837 342.967 260.321C341.288 259.842 339.788 258.877 338.656 257.548C337.523 256.219 336.808 254.585 336.601 252.852Z" fill="black"/>
<path opacity="0.08" d="M322.676 253.925L315.131 253.32L315.736 245.76L308.448 245.186L307.843 252.731L300.283 252.126L299.708 259.414L307.253 260.019L306.649 267.579L313.936 268.153L314.541 260.608L322.101 261.213L322.676 253.925Z" fill="black"/>
<path opacity="0.08" d="M354.08 224.698L273.551 218.076C272.802 218.018 272.106 217.669 271.611 217.103C271.117 216.538 270.863 215.802 270.905 215.052L273.475 183.814C273.534 183.064 273.882 182.366 274.447 181.869C275.012 181.372 275.748 181.115 276.499 181.153L357.029 187.79C357.779 187.845 358.477 188.193 358.973 188.759C359.468 189.325 359.72 190.064 359.675 190.814L357.044 222.264C356.964 222.976 356.609 223.628 356.056 224.082C355.503 224.537 354.794 224.758 354.08 224.698Z" fill="black"/>
<path opacity="0.7" d="M247.121 127.961L233.407 317.127L378.741 327.711L392.455 138.56L247.121 127.961ZM372.708 318.473L240.68 308.902L253.139 137.063L385.182 146.664L372.708 318.473Z" fill="white"/>
<path d="M643.693 169.261L481.794 185.906L503.457 396.611L665.356 379.966L643.693 169.261Z" fill="#2019a5"/>
<path opacity="0.5" d="M643.693 169.261L481.794 185.906L503.457 396.611L665.356 379.966L643.693 169.261Z" fill="white"/>
<path d="M613.08 202.64L517.623 212.37C514.699 212.668 512.57 215.28 512.868 218.205L527.005 356.893C527.303 359.817 529.915 361.946 532.839 361.648L628.296 351.918C631.22 351.62 633.349 349.008 633.051 346.083L618.915 207.396C618.617 204.471 616.005 202.342 613.08 202.64Z" fill="white"/>
<path opacity="0.08" d="M579.625 301.069C579.293 299.983 579.32 298.819 579.701 297.748C580.082 296.678 580.797 295.759 581.741 295.127C582.684 294.494 583.807 294.182 584.941 294.237C586.076 294.292 587.163 294.711 588.042 295.431C588.92 296.151 589.543 297.135 589.819 298.237C590.095 299.339 590.01 300.501 589.574 301.55C589.139 302.6 588.378 303.481 587.403 304.064C586.428 304.648 585.291 304.902 584.161 304.789C583.124 304.682 582.141 304.272 581.334 303.611C580.528 302.949 579.934 302.066 579.625 301.069Z" fill="black"/>
<path opacity="0.08" d="M560.498 303.02C560.166 301.934 560.193 300.769 560.574 299.699C560.955 298.629 561.67 297.709 562.614 297.077C563.558 296.445 564.68 296.133 565.815 296.188C566.949 296.243 568.036 296.661 568.915 297.382C569.793 298.102 570.417 299.086 570.693 300.188C570.969 301.29 570.883 302.451 570.448 303.501C570.013 304.55 569.251 305.432 568.276 306.015C567.301 306.598 566.165 306.852 565.034 306.74C563.996 306.634 563.012 306.225 562.206 305.563C561.399 304.902 560.805 304.017 560.498 303.02Z" fill="black"/>
<path opacity="0.08" d="M571.249 313.695C570.917 312.608 570.943 311.444 571.324 310.374C571.705 309.303 572.42 308.384 573.364 307.752C574.308 307.119 575.43 306.808 576.565 306.862C577.7 306.917 578.787 307.336 579.665 308.056C580.544 308.777 581.167 309.76 581.443 310.862C581.719 311.964 581.633 313.126 581.198 314.175C580.763 315.225 580.001 316.106 579.027 316.69C578.052 317.273 576.915 317.527 575.785 317.414C574.746 317.311 573.761 316.902 572.954 316.24C572.147 315.579 571.554 314.693 571.249 313.695Z" fill="black"/>
<path opacity="0.08" d="M621.931 315.781L613.328 316.658L612.451 308.04L604.135 308.887L605.012 317.505L596.393 318.382L597.24 326.698L605.858 325.821L606.735 334.439L615.051 333.593L614.174 324.974L622.793 324.097L621.931 315.781Z" fill="black"/>
<path opacity="0.08" d="M559.047 322.192L550.429 323.069L549.552 314.466L541.236 315.313L542.113 323.916L533.494 324.793L534.341 333.109L542.959 332.232L543.836 340.85L552.152 340.003L551.275 331.385L559.894 330.508L559.047 322.192Z" fill="black"/>
<path opacity="0.08" d="M604.24 214.474L528.684 222.175C527.163 222.33 526.057 223.688 526.211 225.209L532.879 290.626C533.034 292.147 534.392 293.253 535.913 293.099L611.469 285.397C612.989 285.242 614.096 283.884 613.941 282.364L607.273 216.946C607.118 215.426 605.76 214.319 604.24 214.474Z" fill="black"/>
<path opacity="0.08" d="M589.072 334.147L568.223 336.272L569.39 347.719L590.238 345.594L589.072 334.147Z" fill="black"/>
<path d="M338.975 483.205C338.975 483.205 345.522 486.123 352.069 497.766C358.616 509.408 450.848 561.768 452.315 576.39C453.782 591.011 458.756 593.203 439.826 596.046C420.896 598.888 394.299 579.414 362.26 561.874C330.221 544.335 314.95 545.832 314.95 545.832L338.975 483.205Z" fill="white" stroke="#263238" stroke-width="1.1326" stroke-linecap="round" stroke-linejoin="round"/>
<path d="M433.249 560.559C433.249 560.559 412.867 563.19 405.639 571.733C398.412 580.275 409.556 593.626 416.465 596.151C423.375 598.676 444.422 596.711 450.334 585.567C456.246 574.424 451.65 571.763 443.757 565.911" fill="white"/>
<path d="M433.249 560.559C433.249 560.559 412.867 563.19 405.639 571.733C398.412 580.275 409.556 593.626 416.465 596.151C423.375 598.676 444.422 596.711 450.334 585.567C456.246 574.424 451.65 571.763 443.757 565.911" stroke="#263238" stroke-width="1.1326" stroke-linecap="round" stroke-linejoin="round"/>
<path d="M416.299 579.519C416.299 579.519 408.739 585.25 407 586.852C405.261 588.455 402.706 595.441 400.952 596.68C399.198 597.92 392.727 599.009 392.001 600.793C391.275 602.577 397.732 604.558 402.736 604.377C407.741 604.195 411.672 598.329 416.496 596.151C419.621 594.824 422.95 594.036 426.339 593.823C426.339 593.823 430.799 583.995 429.015 580.064C427.231 576.132 420.336 576.662 416.299 579.519Z" fill="white" stroke="#263238" stroke-width="1.1326" stroke-linecap="round" stroke-linejoin="round"/>
<path d="M434.231 568.966C432.636 568.678 431.003 568.678 429.408 568.966C425.536 569.516 421.706 570.334 417.947 571.415C416.087 572.352 413.215 584.161 411.824 589.74C410.432 595.32 404.914 605.375 407.288 605.843C409.661 606.312 415.513 607.627 416.511 604.044C418.129 598.329 421.712 587.699 421.712 587.699C421.712 587.699 418.915 597.935 420.306 599.795C421.697 601.655 444.029 601.186 446.826 600.249C449.624 599.311 456.125 587.231 456.594 580.714C456.942 575.165 441.262 570.311 434.231 568.966Z" fill="white" stroke="#263238" stroke-width="1.1326" stroke-linecap="round" stroke-linejoin="round"/>
<path d="M429.877 600.612L435.607 578.264" stroke="#263238" stroke-width="1.1326" stroke-linecap="round" stroke-linejoin="round"/>
<path d="M442.033 600.264L447.401 579.172" stroke="#263238" stroke-width="1.1326" stroke-linecap="round" stroke-linejoin="round"/>
<path d="M421.667 587.669L424.509 577.554" stroke="#263238" stroke-width="1.1326" stroke-linecap="round" stroke-linejoin="round"/>
<path d="M379.013 513.778C356.484 493.759 331.158 466.679 301.977 456.957C294.441 454.534 287.455 450.655 281.414 445.541C281.414 445.541 260.896 430.996 247.908 430.285C233.045 429.453 221.569 445.178 214.644 456.458C183.859 506.762 179.868 564.944 178.688 622.778H314.95C314.95 622.778 307.027 610.515 315.675 575.195C317.307 568.478 319.408 561.885 321.965 555.463C324.49 556.552 327.272 557.716 330.236 558.941C342.604 564.037 371.06 580.109 371.06 580.109L403.069 533.676C403.069 533.676 385.56 519.614 379.013 513.778Z" fill="white" stroke="#263238" stroke-width="1.1326" stroke-linecap="round" stroke-linejoin="round"/>
<path d="M254.712 439.78C250.72 432.659 242.041 425.326 228.448 433.158C210.848 443.288 158.518 547.783 154.92 563.643C151.321 579.504 224.834 589.68 253.668 589.68C271.521 589.647 289.361 588.703 307.117 586.853L312.787 590.391C312.787 590.391 312.787 604.089 317.838 605.511C322.888 606.932 338.748 607.023 343.783 604.074C348.818 601.126 347.397 593.263 347.397 593.263C347.397 593.263 350.996 609.124 356.756 610.561C358.667 611.058 360.668 611.089 362.593 610.651C363.046 610.543 363.464 610.318 363.804 610C364.145 609.681 364.397 609.28 364.535 608.835C364.674 608.39 364.695 607.916 364.595 607.461C364.496 607.005 364.28 606.583 363.969 606.236L362.457 604.437L352.493 582.453C352.493 582.453 349.741 570.568 346.142 570.568C342.544 570.568 313.574 570.19 313.574 570.19C313.574 570.19 264.555 564.43 243.644 558.654C222.733 552.878 211.68 544.819 211.68 544.819L251.778 479.41" fill="white"/>
<path d="M305.847 580.774C295.022 579.504 261.878 580.139 219.164 574.394C176.45 568.648 166.244 558.457 174.545 555.917C182.846 553.377 210.833 547.631 212.799 547.631C214.765 547.631 177.101 540.616 177.101 540.616L197.377 476.492C177.721 510.708 157.127 553.906 154.92 563.643C151.306 579.504 224.834 589.68 253.668 589.68C271.521 589.647 289.361 588.703 307.118 586.853L312.788 590.391C312.788 590.391 312.788 604.089 317.838 605.511C319.325 605.886 320.843 606.124 322.374 606.221C324.458 604.454 325.851 602.006 326.305 599.311C327.378 592.507 316.688 582.12 305.847 580.774Z" fill="#2019a5"/>
<path opacity="0.5" d="M305.847 580.774C295.022 579.504 261.878 580.139 219.164 574.394C176.45 568.648 166.244 558.457 174.545 555.917C182.846 553.377 210.833 547.631 212.799 547.631C214.765 547.631 177.101 540.616 177.101 540.616L197.377 476.492C177.721 510.708 157.127 553.906 154.92 563.643C151.306 579.504 224.834 589.68 253.668 589.68C271.521 589.647 289.361 588.703 307.118 586.853L312.788 590.391C312.788 590.391 312.788 604.089 317.838 605.511C319.325 605.886 320.843 606.124 322.374 606.221C324.458 604.454 325.851 602.006 326.305 599.311C327.378 592.507 316.688 582.12 305.847 580.774Z" fill="white"/>
<path d="M254.712 439.78C250.72 432.659 242.041 425.326 228.448 433.158C210.848 443.288 158.518 547.783 154.92 563.643C151.321 579.504 224.834 589.68 253.668 589.68C271.521 589.647 289.361 588.703 307.117 586.853L312.787 590.391C312.787 590.391 312.787 604.089 317.838 605.511C322.888 606.932 338.748 607.023 343.783 604.074C348.818 601.126 347.397 593.263 347.397 593.263C347.397 593.263 350.996 609.124 356.756 610.561C358.667 611.058 360.668 611.089 362.593 610.651C363.046 610.543 363.464 610.318 363.804 610C364.145 609.681 364.397 609.28 364.535 608.835C364.674 608.39 364.695 607.916 364.595 607.461C364.496 607.005 364.28 606.583 363.969 606.236L362.457 604.437L352.493 582.453C352.493 582.453 349.741 570.568 346.142 570.568C342.544 570.568 313.574 570.19 313.574 570.19C313.574 570.19 264.555 564.43 243.644 558.654C222.733 552.878 211.68 544.819 211.68 544.819L251.778 479.41" stroke="#263238" stroke-width="1.1326" stroke-linecap="round" stroke-linejoin="round"/>
<path d="M336.012 582.211C336.012 582.211 341.364 597.905 341.364 600.476C341.285 602.258 340.848 604.007 340.079 605.616" stroke="#263238" stroke-width="1.1326" stroke-linecap="round" stroke-linejoin="round"/>
<path d="M326.819 584.63C326.819 584.63 331.945 599.19 332.383 602.184C332.556 602.948 332.529 603.743 332.304 604.493C332.079 605.243 331.663 605.921 331.098 606.463" stroke="#263238" stroke-width="1.1326" stroke-linecap="round" stroke-linejoin="round"/>
<path d="M347.397 593.203L343.935 579.927" stroke="#263238" stroke-width="1.1326" stroke-linecap="round" stroke-linejoin="round"/>
<path d="M312.788 590.315L319.954 592.764C319.954 592.764 324.249 594.912 320.816 597.905" fill="white"/>
<path d="M312.788 590.315L319.954 592.764C319.954 592.764 324.249 594.912 320.816 597.905" stroke="#263238" stroke-width="1.1326" stroke-linecap="round" stroke-linejoin="round"/>
<path d="M257.448 441.64C257.448 441.64 253.608 428.788 238.186 428.365C222.763 427.941 211.68 445.919 204.362 456.624C197.044 467.329 177.826 508.848 175.634 513.989C173.442 519.13 161.089 541.387 161.089 541.387C161.089 541.387 167.5 547.435 182.922 547.435H216.745C216.745 547.435 218.015 546.996 218.877 543.156C219.318 541.471 219.607 539.751 219.739 538.015L258.265 474.224" fill="white"/>
<path d="M257.448 441.64C257.448 441.64 253.608 428.788 238.185 428.365C222.763 427.941 211.68 445.919 204.362 456.624C197.044 467.329 177.826 508.848 175.634 513.989C173.442 519.13 161.089 541.387 161.089 541.387C161.089 541.387 167.5 547.435 182.922 547.435H216.745C216.745 547.435 218.015 546.996 218.877 543.156C219.318 541.471 219.607 539.751 219.739 538.015L258.265 474.224" stroke="#263238" stroke-width="1.1326" stroke-linecap="round" stroke-linejoin="round"/>
<path d="M362.623 590.481L365.677 598.132" stroke="#263238" stroke-width="1.1326" stroke-linecap="round" stroke-linejoin="round"/>
<path d="M364.921 585.129L368.747 594.307" stroke="#263238" stroke-width="1.1326" stroke-linecap="round" stroke-linejoin="round"/>
<path d="M338.597 523.742L321.965 555.448L347.805 532.3" stroke="#263238" stroke-width="1.1326" stroke-linecap="round" stroke-linejoin="round"/>
<path d="M301.977 456.957C294.441 454.534 287.455 450.655 281.413 445.541C281.413 445.541 278.027 443.137 273.143 440.249C275.849 453.509 284.12 491.657 290.622 498.113C296.866 504.358 310.096 477.671 315.358 462.672C311.055 460.417 306.581 458.506 301.977 456.957Z" fill="white" stroke="#263238" stroke-width="1.1326" stroke-linecap="round" stroke-linejoin="round"/>
<path d="M343.39 432.235C353.486 432.235 361.671 421.743 361.671 408.799C361.671 395.856 353.486 385.363 343.39 385.363C333.295 385.363 325.11 395.856 325.11 408.799C325.11 421.743 333.295 432.235 343.39 432.235Z" fill="white" stroke="#263238" stroke-width="1.1326" stroke-linecap="round" stroke-linejoin="round"/>
<path d="M282.29 403.553C282.29 403.553 279.66 433.294 281.413 445.541C283.167 457.788 290.153 496.269 295.399 485.775C300.646 475.282 319.032 441.171 319.032 441.171C319.032 441.171 287.537 417.554 282.29 403.553Z" fill="white"/>
<path d="M282.29 403.553C282.29 403.553 279.66 433.294 281.413 445.541C282.094 450.379 283.621 459.315 285.511 467.707L307.133 455.853L316.205 446.327L318.972 441.171C318.972 441.171 287.537 417.554 282.29 403.553Z" fill="#2019a5"/>
<path opacity="0.5" d="M282.29 403.553C282.29 403.553 279.66 433.294 281.413 445.541C282.094 450.379 283.621 459.315 285.511 467.707L307.133 455.853L316.205 446.327L318.972 441.171C318.972 441.171 287.537 417.554 282.29 403.553Z" fill="white"/>
<path d="M282.29 403.553C282.29 403.553 279.66 433.294 281.413 445.541C283.167 457.788 290.153 496.269 295.399 485.775C300.646 475.282 319.032 441.171 319.032 441.171C319.032 441.171 287.537 417.554 282.29 403.553Z" stroke="#263238" stroke-width="1.1326" stroke-linecap="round" stroke-linejoin="round"/>
<path d="M277.029 398.306C277.029 398.306 270.981 361.565 276.167 347.563C281.353 333.562 300.661 326.577 323.402 333.577C346.142 340.578 359.266 347.563 362.714 363.318C366.161 379.073 353.974 388.69 353.974 388.69C353.974 388.69 343.466 364.195 331.294 361.565C319.123 358.934 307.677 358.072 309.431 366.811C311.185 375.551 312.062 386.936 306.815 391.306C301.568 395.675 300.692 397.429 298.061 404.43C295.43 411.43 287.567 418.431 281.429 410.478C275.29 402.525 277.029 398.306 277.029 398.306Z" fill="#263238" stroke="#263238" stroke-width="1.1326" stroke-linecap="round" stroke-linejoin="round"/>
<path d="M283.152 400.922C283.152 400.922 281.414 389.552 273.536 393.936C265.658 398.321 277.029 414.923 277.029 414.923C278.296 426.727 282.842 437.941 290.153 447.295C302.4 463.035 323.568 465.167 335.664 455.112C349.272 443.802 355.774 392.137 355.774 392.137C355.774 392.137 361.02 385.137 349.726 367.643C338.431 350.149 299.83 350.149 297.244 357.149C294.659 364.15 305.122 378.136 302.491 383.383C299.86 388.629 291.998 382.521 290.244 392.137C288.49 401.753 286.66 408.799 283.152 400.922Z" fill="white"/>
<path d="M349.635 367.688C338.265 350.194 299.739 350.194 297.153 357.195C294.568 364.195 305.031 378.181 302.4 383.428C299.769 388.675 291.907 382.566 290.153 392.183C288.399 401.799 286.66 408.815 283.152 400.922C283.152 400.922 281.414 389.552 273.536 393.936C265.658 398.321 277.029 414.923 277.029 414.923C278.296 426.727 282.842 437.941 290.153 447.295C293.82 452.139 298.688 455.942 304.275 458.329C309.862 460.716 315.976 461.603 322.011 460.903C316.784 460.11 311.743 458.379 307.133 455.792C295.037 448.777 291.831 435.396 295.657 420.729C299.482 406.063 308.403 370.379 312.893 366.751C317.384 363.122 320.453 365.919 330.07 374.84C339.686 383.761 344.736 383.126 344.736 383.126L354.579 376.76C353.201 373.597 351.547 370.561 349.635 367.688Z" fill="#2019a5"/>
<path opacity="0.5" d="M349.635 367.688C338.265 350.194 299.739 350.194 297.153 357.195C294.568 364.195 305.031 378.181 302.4 383.428C299.769 388.675 291.907 382.566 290.153 392.183C288.399 401.799 286.66 408.815 283.152 400.922C283.152 400.922 281.414 389.552 273.536 393.936C265.658 398.321 277.029 414.923 277.029 414.923C278.296 426.727 282.842 437.941 290.153 447.295C293.82 452.139 298.688 455.942 304.275 458.329C309.862 460.716 315.976 461.603 322.011 460.903C316.784 460.11 311.743 458.379 307.133 455.792C295.037 448.777 291.831 435.396 295.657 420.729C299.482 406.063 308.403 370.379 312.893 366.751C317.384 363.122 320.453 365.919 330.07 374.84C339.686 383.761 344.736 383.126 344.736 383.126L354.579 376.76C353.201 373.597 351.547 370.561 349.635 367.688Z" fill="white"/>
<path d="M283.152 400.922C283.152 400.922 281.414 389.552 273.536 393.936C265.658 398.321 277.029 414.923 277.029 414.923C278.296 426.727 282.842 437.941 290.153 447.295C302.4 463.035 323.568 465.167 335.664 455.112C349.272 443.802 355.774 392.137 355.774 392.137C355.774 392.137 361.02 385.137 349.726 367.643C338.431 350.149 299.83 350.149 297.244 357.149C294.659 364.15 305.122 378.136 302.491 383.383C299.86 388.629 291.998 382.521 290.244 392.137C288.49 401.753 286.66 408.799 283.152 400.922Z" stroke="#263238" stroke-width="1.1326" stroke-linecap="round" stroke-linejoin="round"/>
<path d="M316.598 431.192C305.545 428.788 303.141 420.608 303.141 420.608" stroke="#263238" stroke-width="1.1326" stroke-linecap="round" stroke-linejoin="round"/>
<path d="M319.486 408.119C314.194 402.842 309.385 402.358 309.385 402.358" stroke="#263238" stroke-width="1.1326" stroke-linecap="round" stroke-linejoin="round"/>
<path d="M306.029 419.656L299.285 421.107" stroke="#263238" stroke-width="1.1326" stroke-linecap="round" stroke-linejoin="round"/>
<path d="M303.141 420.623C302.075 422.055 301.312 423.689 300.899 425.426C300.486 427.162 300.431 428.965 300.737 430.723C301.629 436.681 308.388 438.147 308.388 438.147C308.388 438.147 308.902 430.24 312.757 430.723C312.757 430.723 305.061 426.384 303.141 420.623Z" stroke="#263238" stroke-width="1.1326" stroke-linecap="round" stroke-linejoin="round"/>
<path d="M302.4 420.971C302.4 420.971 301.357 430.965 308.448 433.596" stroke="#263238" stroke-width="0.566302" stroke-linecap="round" stroke-linejoin="round"/>
<path d="M340.971 393.831C340.971 393.831 333.683 401.118 333.683 409.056C333.683 416.994 340.971 422.302 335.014 424.297C329.057 426.293 327.061 424.948 327.061 424.948" stroke="#263238" stroke-width="1.1326" stroke-linecap="round" stroke-linejoin="round"/>
<path d="M319.334 402.268C318.715 404.717 317.822 403.628 316.598 403.311C315.373 402.993 314.194 403.583 314.814 401.134C315.434 398.684 316.946 396.93 318.185 397.248C319.425 397.565 319.939 399.803 319.334 402.268Z" fill="#263238"/>
<path d="M344.494 406.229C343.874 408.694 342.362 410.432 341.122 410.115C339.883 409.797 339.353 407.56 339.973 405.095C340.593 402.631 342.105 400.907 343.345 401.209C344.585 401.512 345.114 403.78 344.494 406.229Z" fill="#263238"/>
<path d="M309.854 385.893C309.854 385.893 319.032 383.05 327.862 395.086" stroke="#263238" stroke-width="1.1326" stroke-linecap="round" stroke-linejoin="round"/>
<path d="M343.617 391.85C343.617 391.85 350.24 389.204 351.57 395.826" stroke="#263238" stroke-width="1.1326" stroke-linecap="round" stroke-linejoin="round"/>
<path d="M297.153 357.195C297.153 357.195 301.523 365.057 312.893 366.811C324.264 368.565 338.265 366.811 340.896 376.443C343.526 386.074 355.758 397.429 369.76 391.306C383.761 385.182 385.499 358.042 376.76 346.702C368.021 335.362 357.512 337.07 347.019 332.7C336.526 328.331 336.526 320.453 320.771 320.453C305.016 320.453 286.66 335.316 297.153 344.071" fill="#263238"/>
<path d="M297.153 357.195C297.153 357.195 301.523 365.057 312.893 366.811C324.264 368.565 338.265 366.811 340.896 376.443C343.526 386.074 355.758 397.429 369.76 391.306C383.761 385.182 385.499 358.042 376.76 346.702C368.021 335.362 357.512 337.07 347.019 332.7C336.526 328.331 336.526 320.453 320.771 320.453C305.016 320.453 286.66 335.316 297.153 344.071" stroke="#263238" stroke-width="1.1326" stroke-linecap="round" stroke-linejoin="round"/>
<path d="M278.949 423.163C289.045 423.163 297.229 412.671 297.229 399.727C297.229 386.784 289.045 376.291 278.949 376.291C268.853 376.291 260.669 386.784 260.669 399.727C260.669 412.671 268.853 423.163 278.949 423.163Z" fill="white" stroke="#263238" stroke-width="1.1326" stroke-linecap="round" stroke-linejoin="round"/>
<path d="M276.076 416.753C283.358 416.753 289.261 409.177 289.261 399.833C289.261 390.489 283.358 382.914 276.076 382.914C268.795 382.914 262.892 390.489 262.892 399.833C262.892 409.177 268.795 416.753 276.076 416.753Z" fill="#263238" stroke="#263238" stroke-width="1.1326" stroke-linecap="round" stroke-linejoin="round"/>
<path d="M273.536 397.354C272.71 397.357 271.91 397.06 271.287 396.518C270.664 395.975 270.259 395.224 270.149 394.405C269.25 386.365 269.275 378.248 270.225 370.213C270.276 369.766 270.415 369.334 270.634 368.941C270.853 368.548 271.147 368.202 271.499 367.923C271.852 367.643 272.256 367.436 272.688 367.313C273.121 367.19 273.573 367.153 274.02 367.204C274.467 367.256 274.899 367.395 275.292 367.614C275.685 367.832 276.031 368.126 276.31 368.479C276.59 368.831 276.797 369.235 276.92 369.668C277.043 370.1 277.08 370.553 277.029 370.999C276.164 378.477 276.128 386.028 276.923 393.513C276.987 393.958 276.962 394.412 276.849 394.847C276.737 395.282 276.539 395.691 276.268 396.05C275.997 396.408 275.657 396.709 275.268 396.936C274.88 397.162 274.45 397.309 274.005 397.369C273.848 397.378 273.691 397.373 273.536 397.354Z" fill="white" stroke="#263238" stroke-width="1.1326" stroke-linecap="round" stroke-linejoin="round"/>
<path d="M343.224 330.871C344.397 331.597 345.625 332.229 346.898 332.761C353.218 335.392 359.554 335.785 365.496 338.219C365.365 337.434 365.077 336.683 364.649 336.012C356.348 322.842 332.096 302.113 299.724 317.868C281.716 326.592 270.648 344.585 267.624 369.865C267.453 371.443 267.909 373.024 268.893 374.269C269.878 375.513 271.311 376.321 272.886 376.518H273.596C275.062 376.504 276.472 375.957 277.565 374.981C278.658 374.005 279.359 372.665 279.539 371.211C281.232 356.56 287.099 337.267 305.031 328.527C321.814 320.423 334.802 324.914 343.224 330.871Z" fill="white" stroke="#263238" stroke-width="1.1326" stroke-linecap="round" stroke-linejoin="round"/>
<path d="M489.071 607.144H276.635V615.717H489.071V607.144Z" fill="white" stroke="#263238" stroke-width="1.1326" stroke-linecap="round" stroke-linejoin="round"/>
<path d="M548.962 607.144H336.526V615.717H548.962V607.144Z" fill="white" stroke="#263238" stroke-width="1.1326" stroke-linecap="round" stroke-linejoin="round"/>
<path d="M210.168 593.309H241.527C244.988 593.309 248.306 594.683 250.754 597.131C253.201 599.578 254.575 602.897 254.575 606.357V622.037H197.119V606.312C197.131 602.859 198.511 599.552 200.957 597.115C203.403 594.677 206.715 593.309 210.168 593.309Z" fill="#2019a5" stroke="#263238" stroke-width="1.1326" stroke-linecap="round" stroke-linejoin="round"/>
<path d="M211.68 599.886H224.986C228.446 599.886 231.765 601.261 234.212 603.708C236.659 606.155 238.034 609.474 238.034 612.935V628.614H198.707V612.919C198.711 609.474 200.077 606.171 202.507 603.729C204.938 601.287 208.235 599.906 211.68 599.886Z" fill="#263238" stroke="#263238" stroke-width="1.1326" stroke-linecap="round" stroke-linejoin="round"/>
<path d="M211.68 603.984H220.072C223.532 603.984 226.851 605.358 229.298 607.805C231.745 610.252 233.12 613.571 233.12 617.032V622.868H198.646V617.032C198.646 613.574 200.019 610.257 202.463 607.811C204.907 605.364 208.222 603.988 211.68 603.984Z" fill="#2019a5" stroke="#263238" stroke-width="1.1326" stroke-linecap="round" stroke-linejoin="round"/>
<path d="M600.158 432.19H403.961V581.969H600.158V432.19Z" fill="white" stroke="#263238" stroke-width="1.1326" stroke-linecap="round" stroke-linejoin="round"/>
<path d="M608.263 432.19H412.065V581.969H608.263V432.19Z" fill="#263238" stroke="#263238" stroke-width="1.1326" stroke-linecap="round" stroke-linejoin="round"/>
<path d="M536.367 529.034H490.644V615.701H536.367V529.034Z" fill="white" stroke="#263238" stroke-width="1.1326" stroke-linecap="round" stroke-linejoin="round"/>
<path d="M695.46 612.859H87.4541V628.871H695.46V612.859Z" fill="white" stroke="#263238" stroke-width="1.1326" stroke-linecap="round" stroke-linejoin="round"/>
<path d="M695.46 612.859H298.121V628.871H695.46V612.859Z" fill="#263238" stroke="#263238" stroke-width="1.1326" stroke-linecap="round" stroke-linejoin="round"/>
</svg>
